<mxfile host="65bd71144e">
    <diagram id="7e_869XuzdwNbqzYAlMI" name="Page-1">
        <mxGraphModel dx="1685" dy="2262" grid="1" gridSize="10" guides="1" tooltips="1" connect="1" arrows="1" fold="1" page="1" pageScale="1" pageWidth="850" pageHeight="1100" math="0" shadow="0">
            <root>
                <mxCell id="0"/>
                <mxCell id="1" parent="0"/>
                <mxCell id="9" style="edgeStyle=none;html=1;entryX=0;entryY=0.5;entryDx=0;entryDy=0;" parent="1" source="5" target="8" edge="1">
                    <mxGeometry relative="1" as="geometry"/>
                </mxCell>
                <mxCell id="5" value="User Admin Group" style="ellipse;whiteSpace=wrap;html=1;aspect=fixed;" parent="1" vertex="1">
                    <mxGeometry x="-50" y="235" width="80" height="80" as="geometry"/>
                </mxCell>
                <mxCell id="6" value="Target User" style="ellipse;whiteSpace=wrap;html=1;aspect=fixed;" parent="1" vertex="1">
                    <mxGeometry x="310" y="600" width="80" height="80" as="geometry"/>
                </mxCell>
                <mxCell id="32" style="edgeStyle=none;html=1;" parent="1" source="7" target="26" edge="1">
                    <mxGeometry relative="1" as="geometry"/>
                </mxCell>
                <mxCell id="7" value="User Admin Group" style="ellipse;whiteSpace=wrap;html=1;aspect=fixed;" parent="1" vertex="1">
                    <mxGeometry x="295" y="-100" width="80" height="80" as="geometry"/>
                </mxCell>
                <mxCell id="27" style="edgeStyle=none;html=1;" parent="1" source="8" edge="1">
                    <mxGeometry relative="1" as="geometry">
                        <mxPoint x="590" y="275" as="targetPoint"/>
                    </mxGeometry>
                </mxCell>
                <mxCell id="8" value="Dual Auth Operations" style="swimlane;" parent="1" vertex="1">
                    <mxGeometry x="230" y="130" width="210" height="290" as="geometry"/>
                </mxCell>
                <mxCell id="4" value="Assign/Update&lt;div&gt;User Group&lt;/div&gt;" style="rounded=0;whiteSpace=wrap;html=1;" parent="8" vertex="1">
                    <mxGeometry x="40" y="140" width="115" height="40" as="geometry"/>
                </mxCell>
                <mxCell id="3" value="Add/Update/Delete&lt;div&gt;Users&lt;/div&gt;" style="rounded=0;whiteSpace=wrap;html=1;" parent="8" vertex="1">
                    <mxGeometry x="40" y="90" width="105" height="35" as="geometry"/>
                </mxCell>
                <mxCell id="2" value="Assign Rights" style="rounded=0;whiteSpace=wrap;html=1;" parent="8" vertex="1">
                    <mxGeometry x="45" y="40" width="95" height="40" as="geometry"/>
                </mxCell>
                <mxCell id="57" value="...." style="rounded=0;whiteSpace=wrap;html=1;" parent="8" vertex="1">
                    <mxGeometry x="40" y="210" width="115" height="40" as="geometry"/>
                </mxCell>
                <mxCell id="10" value="request" style="text;html=1;align=center;verticalAlign=middle;resizable=0;points=[];autosize=1;strokeColor=none;fillColor=none;" parent="1" vertex="1">
                    <mxGeometry x="85" y="236" width="60" height="30" as="geometry"/>
                </mxCell>
                <mxCell id="11" value="DB" style="shape=cylinder3;whiteSpace=wrap;html=1;boundedLbl=1;backgroundOutline=1;size=15;" parent="1" vertex="1">
                    <mxGeometry x="900" y="160" width="60" height="80" as="geometry"/>
                </mxCell>
                <mxCell id="15" value="Create Records" style="text;html=1;align=center;verticalAlign=middle;resizable=0;points=[];autosize=1;strokeColor=none;fillColor=none;" parent="1" vertex="1">
                    <mxGeometry x="710" y="161" width="110" height="30" as="geometry"/>
                </mxCell>
                <mxCell id="36" style="edgeStyle=none;html=1;entryX=1;entryY=0.5;entryDx=0;entryDy=0;" parent="1" source="21" target="6" edge="1">
                    <mxGeometry relative="1" as="geometry">
                        <Array as="points">
                            <mxPoint x="950" y="640"/>
                        </Array>
                    </mxGeometry>
                </mxCell>
                <mxCell id="38" style="edgeStyle=none;html=1;entryX=0.5;entryY=0;entryDx=0;entryDy=0;" parent="1" source="21" target="7" edge="1">
                    <mxGeometry relative="1" as="geometry">
                        <Array as="points">
                            <mxPoint x="1060" y="330"/>
                            <mxPoint x="1060" y="-160"/>
                            <mxPoint x="335" y="-160"/>
                        </Array>
                    </mxGeometry>
                </mxCell>
                <mxCell id="21" value="Event Service" style="ellipse;shape=cloud;whiteSpace=wrap;html=1;" parent="1" vertex="1">
                    <mxGeometry x="890" y="290" width="120" height="80" as="geometry"/>
                </mxCell>
                <mxCell id="24" value="Push Notification (SMS/Mobile/Email)" style="text;html=1;align=center;verticalAlign=middle;resizable=0;points=[];autosize=1;strokeColor=none;fillColor=none;" parent="1" vertex="1">
                    <mxGeometry x="672" y="-75" width="220" height="30" as="geometry"/>
                </mxCell>
                <mxCell id="26" value="Server" style="ellipse;shape=cloud;whiteSpace=wrap;html=1;" parent="1" vertex="1">
                    <mxGeometry x="580" y="230" width="120" height="80" as="geometry"/>
                </mxCell>
                <mxCell id="28" style="edgeStyle=none;html=1;entryX=0;entryY=0.5;entryDx=0;entryDy=0;entryPerimeter=0;" parent="1" source="26" target="11" edge="1">
                    <mxGeometry relative="1" as="geometry"/>
                </mxCell>
                <mxCell id="29" style="edgeStyle=none;html=1;entryX=0.1;entryY=0.613;entryDx=0;entryDy=0;entryPerimeter=0;" parent="1" source="26" target="21" edge="1">
                    <mxGeometry relative="1" as="geometry"/>
                </mxCell>
                <mxCell id="30" value="Broadcast Event" style="text;html=1;align=center;verticalAlign=middle;resizable=0;points=[];autosize=1;strokeColor=none;fillColor=none;" parent="1" vertex="1">
                    <mxGeometry x="732" y="320" width="110" height="30" as="geometry"/>
                </mxCell>
                <mxCell id="31" style="edgeStyle=none;html=1;entryX=0.975;entryY=0.313;entryDx=0;entryDy=0;entryPerimeter=0;" parent="1" source="26" target="7" edge="1">
                    <mxGeometry relative="1" as="geometry">
                        <Array as="points">
                            <mxPoint x="640" y="-75"/>
                        </Array>
                    </mxGeometry>
                </mxCell>
                <mxCell id="33" value="Approve/Reject (token)" style="text;html=1;align=center;verticalAlign=middle;resizable=0;points=[];autosize=1;strokeColor=none;fillColor=none;" parent="1" vertex="1">
                    <mxGeometry x="460" y="7" width="150" height="30" as="geometry"/>
                </mxCell>
                <mxCell id="34" style="edgeStyle=none;html=1;entryX=0.475;entryY=0.938;entryDx=0;entryDy=0;entryPerimeter=0;" parent="1" source="5" target="26" edge="1">
                    <mxGeometry relative="1" as="geometry">
                        <Array as="points">
                            <mxPoint x="-10" y="470"/>
                            <mxPoint x="640" y="470"/>
                        </Array>
                    </mxGeometry>
                </mxCell>
                <mxCell id="35" value="Query request status/remind others to process" style="text;html=1;align=center;verticalAlign=middle;resizable=0;points=[];autosize=1;strokeColor=none;fillColor=none;" parent="1" vertex="1">
                    <mxGeometry x="85" y="440" width="270" height="30" as="geometry"/>
                </mxCell>
                <mxCell id="37" value="MQTT Event" style="text;html=1;align=center;verticalAlign=middle;resizable=0;points=[];autosize=1;strokeColor=none;fillColor=none;" parent="1" vertex="1">
                    <mxGeometry x="560" y="608" width="90" height="30" as="geometry"/>
                </mxCell>
                <mxCell id="39" value="MQTT Event" style="text;html=1;align=center;verticalAlign=middle;resizable=0;points=[];autosize=1;strokeColor=none;fillColor=none;" parent="1" vertex="1">
                    <mxGeometry x="930" y="-150" width="90" height="30" as="geometry"/>
                </mxCell>
                <mxCell id="40" value="2" style="ellipse;whiteSpace=wrap;html=1;aspect=fixed;fillColor=#dae8fc;strokeColor=#6c8ebf;" parent="1" vertex="1">
                    <mxGeometry x="678" y="160" width="32" height="32" as="geometry"/>
                </mxCell>
                <mxCell id="42" value="1" style="ellipse;whiteSpace=wrap;html=1;aspect=fixed;fillColor=#dae8fc;strokeColor=#6c8ebf;" parent="1" vertex="1">
                    <mxGeometry x="53" y="235" width="32" height="32" as="geometry"/>
                </mxCell>
                <mxCell id="43" value="2" style="ellipse;whiteSpace=wrap;html=1;aspect=fixed;fillColor=#dae8fc;strokeColor=#6c8ebf;" parent="1" vertex="1">
                    <mxGeometry x="700" y="300" width="32" height="32" as="geometry"/>
                </mxCell>
                <mxCell id="44" value="3" style="ellipse;whiteSpace=wrap;html=1;aspect=fixed;fillColor=#dae8fc;strokeColor=#6c8ebf;" parent="1" vertex="1">
                    <mxGeometry x="640" y="-76" width="32" height="32" as="geometry"/>
                </mxCell>
                <mxCell id="45" value="3" style="ellipse;whiteSpace=wrap;html=1;aspect=fixed;fillColor=#dae8fc;strokeColor=#6c8ebf;" parent="1" vertex="1">
                    <mxGeometry x="868" y="-150" width="32" height="32" as="geometry"/>
                </mxCell>
                <mxCell id="46" value="3" style="ellipse;whiteSpace=wrap;html=1;aspect=fixed;fillColor=#dae8fc;strokeColor=#6c8ebf;" parent="1" vertex="1">
                    <mxGeometry x="490" y="606" width="32" height="32" as="geometry"/>
                </mxCell>
                <mxCell id="47" value="4" style="ellipse;whiteSpace=wrap;html=1;aspect=fixed;fillColor=#dae8fc;strokeColor=#6c8ebf;" parent="1" vertex="1">
                    <mxGeometry x="435" y="6" width="32" height="32" as="geometry"/>
                </mxCell>
                <mxCell id="48" value="5" style="ellipse;whiteSpace=wrap;html=1;aspect=fixed;fillColor=#dae8fc;strokeColor=#6c8ebf;" parent="1" vertex="1">
                    <mxGeometry x="678" y="198" width="32" height="32" as="geometry"/>
                </mxCell>
                <mxCell id="49" value="5" style="ellipse;whiteSpace=wrap;html=1;aspect=fixed;fillColor=#dae8fc;strokeColor=#6c8ebf;" parent="1" vertex="1">
                    <mxGeometry x="700" y="338" width="32" height="32" as="geometry"/>
                </mxCell>
                <mxCell id="50" value="Update Records" style="text;html=1;align=center;verticalAlign=middle;resizable=0;points=[];autosize=1;strokeColor=none;fillColor=none;" parent="1" vertex="1">
                    <mxGeometry x="710" y="198" width="110" height="30" as="geometry"/>
                </mxCell>
                <mxCell id="51" value="6" style="ellipse;whiteSpace=wrap;html=1;aspect=fixed;fillColor=#dae8fc;strokeColor=#6c8ebf;" parent="1" vertex="1">
                    <mxGeometry x="528" y="606" width="32" height="32" as="geometry"/>
                </mxCell>
                <mxCell id="52" value="6" style="ellipse;whiteSpace=wrap;html=1;aspect=fixed;fillColor=#dae8fc;strokeColor=#6c8ebf;" parent="1" vertex="1">
                    <mxGeometry x="902" y="-150" width="32" height="32" as="geometry"/>
                </mxCell>
            </root>
        </mxGraphModel>
    </diagram>
    <diagram id="9jqWvqeDdJ56x9YAGsC-" name="Page-2">
        <mxGraphModel dx="2167" dy="1162" grid="1" gridSize="10" guides="1" tooltips="1" connect="1" arrows="1" fold="1" page="1" pageScale="1" pageWidth="850" pageHeight="1100" math="0" shadow="0">
            <root>
                <mxCell id="0"/>
                <mxCell id="1" parent="0"/>
                <mxCell id="BoOWqfKJgrju5w1kVjZb-43" style="edgeStyle=none;html=1;entryX=0.5;entryY=0;entryDx=0;entryDy=0;" parent="1" source="BoOWqfKJgrju5w1kVjZb-1" target="BoOWqfKJgrju5w1kVjZb-41" edge="1">
                    <mxGeometry relative="1" as="geometry"/>
                </mxCell>
                <mxCell id="BoOWqfKJgrju5w1kVjZb-1" value="Definition of&lt;div&gt;Field A&lt;/div&gt;" style="ellipse;whiteSpace=wrap;html=1;aspect=fixed;" parent="1" vertex="1">
                    <mxGeometry x="130" y="20" width="80" height="80" as="geometry"/>
                </mxCell>
                <mxCell id="BoOWqfKJgrju5w1kVjZb-31" style="edgeStyle=none;html=1;" parent="1" source="BoOWqfKJgrju5w1kVjZb-2" edge="1">
                    <mxGeometry relative="1" as="geometry">
                        <mxPoint x="40" y="400" as="targetPoint"/>
                    </mxGeometry>
                </mxCell>
                <mxCell id="BoOWqfKJgrju5w1kVjZb-33" style="edgeStyle=none;html=1;" parent="1" source="BoOWqfKJgrju5w1kVjZb-2" edge="1">
                    <mxGeometry relative="1" as="geometry">
                        <mxPoint x="170" y="510" as="targetPoint"/>
                    </mxGeometry>
                </mxCell>
                <mxCell id="BoOWqfKJgrju5w1kVjZb-2" value="is Dynamic?" style="rhombus;whiteSpace=wrap;html=1;" parent="1" vertex="1">
                    <mxGeometry x="130" y="360" width="80" height="80" as="geometry"/>
                </mxCell>
                <mxCell id="BoOWqfKJgrju5w1kVjZb-3" value="Field A (dynamic)" style="shape=process;whiteSpace=wrap;html=1;backgroundOutline=1;fillColor=#f0a30a;fontColor=#000000;strokeColor=#BD7000;" parent="1" vertex="1">
                    <mxGeometry x="110" y="510" width="120" height="60" as="geometry"/>
                </mxCell>
                <mxCell id="BoOWqfKJgrju5w1kVjZb-4" value="Field A (static)" style="shape=process;whiteSpace=wrap;html=1;backgroundOutline=1;fillColor=#d5e8d4;strokeColor=#82b366;" parent="1" vertex="1">
                    <mxGeometry x="-80" y="370" width="120" height="60" as="geometry"/>
                </mxCell>
                <mxCell id="BoOWqfKJgrju5w1kVjZb-45" style="edgeStyle=none;html=1;entryX=0.5;entryY=0;entryDx=0;entryDy=0;" parent="1" source="BoOWqfKJgrju5w1kVjZb-5" target="BoOWqfKJgrju5w1kVjZb-42" edge="1">
                    <mxGeometry relative="1" as="geometry"/>
                </mxCell>
                <mxCell id="BoOWqfKJgrju5w1kVjZb-5" value="Definition of&lt;div&gt;Field B&lt;/div&gt;" style="ellipse;whiteSpace=wrap;html=1;aspect=fixed;" parent="1" vertex="1">
                    <mxGeometry x="610" y="10" width="80" height="80" as="geometry"/>
                </mxCell>
                <mxCell id="BoOWqfKJgrju5w1kVjZb-35" style="edgeStyle=none;html=1;entryX=0;entryY=0.5;entryDx=0;entryDy=0;" parent="1" source="BoOWqfKJgrju5w1kVjZb-6" target="BoOWqfKJgrju5w1kVjZb-8" edge="1">
                    <mxGeometry relative="1" as="geometry"/>
                </mxCell>
                <mxCell id="BoOWqfKJgrju5w1kVjZb-6" value="is Dynamic?" style="rhombus;whiteSpace=wrap;html=1;" parent="1" vertex="1">
                    <mxGeometry x="610" y="360" width="80" height="80" as="geometry"/>
                </mxCell>
                <mxCell id="BoOWqfKJgrju5w1kVjZb-7" value="Field B (dynamic)" style="shape=process;whiteSpace=wrap;html=1;backgroundOutline=1;fillColor=#f0a30a;fontColor=#000000;strokeColor=#BD7000;" parent="1" vertex="1">
                    <mxGeometry x="600" y="510" width="120" height="60" as="geometry"/>
                </mxCell>
                <mxCell id="BoOWqfKJgrju5w1kVjZb-8" value="Field A (static)" style="shape=process;whiteSpace=wrap;html=1;backgroundOutline=1;fillColor=#d5e8d4;strokeColor=#82b366;" parent="1" vertex="1">
                    <mxGeometry x="800" y="370" width="120" height="60" as="geometry"/>
                </mxCell>
                <mxCell id="BoOWqfKJgrju5w1kVjZb-15" style="edgeStyle=none;html=1;" parent="1" source="BoOWqfKJgrju5w1kVjZb-9" edge="1">
                    <mxGeometry relative="1" as="geometry">
                        <mxPoint x="40" y="600" as="targetPoint"/>
                        <Array as="points">
                            <mxPoint x="40" y="890"/>
                        </Array>
                    </mxGeometry>
                </mxCell>
                <mxCell id="BoOWqfKJgrju5w1kVjZb-29" style="edgeStyle=none;html=1;" parent="1" source="BoOWqfKJgrju5w1kVjZb-9" target="BoOWqfKJgrju5w1kVjZb-28" edge="1">
                    <mxGeometry relative="1" as="geometry"/>
                </mxCell>
                <mxCell id="BoOWqfKJgrju5w1kVjZb-9" value="Form State Manager" style="ellipse;shape=cloud;whiteSpace=wrap;html=1;fillColor=#dae8fc;gradientColor=#7ea6e0;strokeColor=#6c8ebf;" parent="1" vertex="1">
                    <mxGeometry x="330" y="850" width="160" height="80" as="geometry"/>
                </mxCell>
                <mxCell id="BoOWqfKJgrju5w1kVjZb-16" style="edgeStyle=none;html=1;dashed=1;" parent="1" source="BoOWqfKJgrju5w1kVjZb-13" target="BoOWqfKJgrju5w1kVjZb-9" edge="1">
                    <mxGeometry relative="1" as="geometry"/>
                </mxCell>
                <mxCell id="BoOWqfKJgrju5w1kVjZb-13" value="CFStateWrapperWidget" style="swimlane;whiteSpace=wrap;html=1;" parent="1" vertex="1">
                    <mxGeometry x="-100" y="310" width="360" height="290" as="geometry"/>
                </mxCell>
                <mxCell id="BoOWqfKJgrju5w1kVjZb-24" style="edgeStyle=none;html=1;entryX=0.96;entryY=0.7;entryDx=0;entryDy=0;entryPerimeter=0;startArrow=classic;startFill=1;endArrow=none;endFill=0;" parent="1" target="BoOWqfKJgrju5w1kVjZb-9" edge="1">
                    <mxGeometry relative="1" as="geometry">
                        <mxPoint x="490" y="940" as="targetPoint"/>
                        <mxPoint x="800" y="600" as="sourcePoint"/>
                        <Array as="points">
                            <mxPoint x="800" y="910"/>
                        </Array>
                    </mxGeometry>
                </mxCell>
                <mxCell id="BoOWqfKJgrju5w1kVjZb-14" value="CFStateWrapperWidget" style="swimlane;whiteSpace=wrap;html=1;" parent="1" vertex="1">
                    <mxGeometry x="560" y="310" width="400" height="290" as="geometry"/>
                </mxCell>
                <mxCell id="BoOWqfKJgrju5w1kVjZb-36" value="NO" style="text;html=1;align=center;verticalAlign=middle;resizable=0;points=[];autosize=1;strokeColor=none;fillColor=none;" parent="BoOWqfKJgrju5w1kVjZb-14" vertex="1">
                    <mxGeometry x="160" y="50" width="40" height="30" as="geometry"/>
                </mxCell>
                <mxCell id="BoOWqfKJgrju5w1kVjZb-17" style="edgeStyle=none;html=1;entryX=0.681;entryY=0.15;entryDx=0;entryDy=0;entryPerimeter=0;dashed=1;" parent="1" source="BoOWqfKJgrju5w1kVjZb-14" target="BoOWqfKJgrju5w1kVjZb-9" edge="1">
                    <mxGeometry relative="1" as="geometry"/>
                </mxCell>
                <mxCell id="BoOWqfKJgrju5w1kVjZb-18" value="reportValueChanage" style="text;html=1;align=center;verticalAlign=middle;resizable=0;points=[];autosize=1;strokeColor=none;fillColor=none;" parent="1" vertex="1">
                    <mxGeometry x="240" y="640" width="130" height="30" as="geometry"/>
                </mxCell>
                <mxCell id="BoOWqfKJgrju5w1kVjZb-19" value="reportValueChanage" style="text;html=1;align=center;verticalAlign=middle;resizable=0;points=[];autosize=1;strokeColor=none;fillColor=none;" parent="1" vertex="1">
                    <mxGeometry x="460" y="640" width="130" height="30" as="geometry"/>
                </mxCell>
                <mxCell id="BoOWqfKJgrju5w1kVjZb-20" style="edgeStyle=none;html=1;entryX=0.925;entryY=0.525;entryDx=0;entryDy=0;entryPerimeter=0;" parent="1" source="BoOWqfKJgrju5w1kVjZb-14" target="BoOWqfKJgrju5w1kVjZb-9" edge="1">
                    <mxGeometry relative="1" as="geometry">
                        <Array as="points">
                            <mxPoint x="760" y="890"/>
                        </Array>
                    </mxGeometry>
                </mxCell>
                <mxCell id="BoOWqfKJgrju5w1kVjZb-21" value="Issue ACTION-A (dynamic)" style="text;html=1;align=center;verticalAlign=middle;resizable=0;points=[];autosize=1;strokeColor=none;fillColor=none;" parent="1" vertex="1">
                    <mxGeometry x="565" y="850" width="170" height="30" as="geometry"/>
                </mxCell>
                <mxCell id="BoOWqfKJgrju5w1kVjZb-22" value="Send ACTION-A (dynamic)" style="text;html=1;align=center;verticalAlign=middle;resizable=0;points=[];autosize=1;strokeColor=none;fillColor=none;" parent="1" vertex="1">
                    <mxGeometry x="45" y="850" width="170" height="30" as="geometry"/>
                </mxCell>
                <mxCell id="BoOWqfKJgrju5w1kVjZb-23" style="edgeStyle=none;html=1;entryX=0.13;entryY=0.77;entryDx=0;entryDy=0;entryPerimeter=0;" parent="1" target="BoOWqfKJgrju5w1kVjZb-9" edge="1">
                    <mxGeometry relative="1" as="geometry">
                        <mxPoint y="600" as="sourcePoint"/>
                        <Array as="points">
                            <mxPoint y="910"/>
                        </Array>
                    </mxGeometry>
                </mxCell>
                <mxCell id="BoOWqfKJgrju5w1kVjZb-25" value="Issue ACTION-B (dynamic)" style="text;html=1;align=center;verticalAlign=middle;resizable=0;points=[];autosize=1;strokeColor=none;fillColor=none;" parent="1" vertex="1">
                    <mxGeometry x="45" y="910" width="170" height="30" as="geometry"/>
                </mxCell>
                <mxCell id="BoOWqfKJgrju5w1kVjZb-26" value="Send ACTION-B (dynamic)" style="text;html=1;align=center;verticalAlign=middle;resizable=0;points=[];autosize=1;strokeColor=none;fillColor=none;" parent="1" vertex="1">
                    <mxGeometry x="575" y="920" width="170" height="30" as="geometry"/>
                </mxCell>
                <mxCell id="BoOWqfKJgrju5w1kVjZb-28" value="FormValues" style="shape=cylinder3;whiteSpace=wrap;html=1;boundedLbl=1;backgroundOutline=1;size=15;fillColor=#d5e8d4;gradientColor=#97d077;strokeColor=#82b366;" parent="1" vertex="1">
                    <mxGeometry x="365" y="1010" width="90" height="80" as="geometry"/>
                </mxCell>
                <mxCell id="BoOWqfKJgrju5w1kVjZb-30" value="Submit" style="text;html=1;align=center;verticalAlign=middle;resizable=0;points=[];autosize=1;strokeColor=none;fillColor=none;" parent="1" vertex="1">
                    <mxGeometry x="405" y="958" width="60" height="30" as="geometry"/>
                </mxCell>
                <mxCell id="BoOWqfKJgrju5w1kVjZb-32" value="NO" style="text;html=1;align=center;verticalAlign=middle;resizable=0;points=[];autosize=1;strokeColor=none;fillColor=none;" parent="1" vertex="1">
                    <mxGeometry x="50" y="368" width="40" height="30" as="geometry"/>
                </mxCell>
                <mxCell id="BoOWqfKJgrju5w1kVjZb-34" value="YES" style="text;html=1;align=center;verticalAlign=middle;resizable=0;points=[];autosize=1;strokeColor=none;fillColor=none;" parent="1" vertex="1">
                    <mxGeometry x="165" y="458" width="50" height="30" as="geometry"/>
                </mxCell>
                <mxCell id="BoOWqfKJgrju5w1kVjZb-37" style="edgeStyle=none;html=1;entryX=0.433;entryY=0.017;entryDx=0;entryDy=0;entryPerimeter=0;" parent="1" source="BoOWqfKJgrju5w1kVjZb-6" target="BoOWqfKJgrju5w1kVjZb-7" edge="1">
                    <mxGeometry relative="1" as="geometry"/>
                </mxCell>
                <mxCell id="BoOWqfKJgrju5w1kVjZb-38" value="YES" style="text;html=1;align=center;verticalAlign=middle;resizable=0;points=[];autosize=1;strokeColor=none;fillColor=none;" parent="1" vertex="1">
                    <mxGeometry x="655" y="458" width="50" height="30" as="geometry"/>
                </mxCell>
                <mxCell id="BoOWqfKJgrju5w1kVjZb-44" style="edgeStyle=none;html=1;entryX=0.75;entryY=0;entryDx=0;entryDy=0;" parent="1" source="BoOWqfKJgrju5w1kVjZb-41" target="BoOWqfKJgrju5w1kVjZb-13" edge="1">
                    <mxGeometry relative="1" as="geometry"/>
                </mxCell>
                <mxCell id="BoOWqfKJgrju5w1kVjZb-41" value="SchemaConverter" style="shape=hexagon;perimeter=hexagonPerimeter2;whiteSpace=wrap;html=1;fixedSize=1;" parent="1" vertex="1">
                    <mxGeometry x="110" y="160" width="120" height="60" as="geometry"/>
                </mxCell>
                <mxCell id="BoOWqfKJgrju5w1kVjZb-42" value="SchemaConverter" style="shape=hexagon;perimeter=hexagonPerimeter2;whiteSpace=wrap;html=1;fixedSize=1;" parent="1" vertex="1">
                    <mxGeometry x="590" y="150" width="120" height="60" as="geometry"/>
                </mxCell>
                <mxCell id="BoOWqfKJgrju5w1kVjZb-46" style="edgeStyle=none;html=1;entryX=0.225;entryY=0;entryDx=0;entryDy=0;entryPerimeter=0;" parent="1" source="BoOWqfKJgrju5w1kVjZb-42" target="BoOWqfKJgrju5w1kVjZb-14" edge="1">
                    <mxGeometry relative="1" as="geometry"/>
                </mxCell>
            </root>
        </mxGraphModel>
    </diagram>
</mxfile>